PathFileType	4	(X/Y/Z)	C:/Users/opensim2020/Desktop/walking_exp_matlab/subject03_walking08_straight_04.trc	
DataRate	CameraRate	NumFrames	NumMarkers	Units	OrigDataRate	OrigDataStartFrame	OrigNumFrames	
100.00	100.00	4	51	mm	100.00	3503	303	
Frame#	Time	LFHD			RFHD			LBHD			RBHD			C7			T10			CLAV			STRN			RBAK			LSHO			LUPA			LELB			LFRM			LWRA			LWRB			LFIN			RSHO			RUPA			RELB			RFRM			RWRA			RWRB			RFIN			LASI			RASI			LPSI			RPSI			LTHI			LKNE			LTIB			LANK			LHEE			LTOE			RTHI			RKNE			RTIB			RANK			RHEE			RTOE			*39			*40			*41			*42			*43			*44			*45			*46			*47			*48			*49			*50			
		X1	Y1	Z1	X2	Y2	Z2	X3	Y3	Z3	X4	Y4	Z4	X5	Y5	Z5	X6	Y6	Z6	X7	Y7	Z7	X8	Y8	Z8	X9	Y9	Z9	X10	Y10	Z10	X11	Y11	Z11	X12	Y12	Z12	X13	Y13	Z13	X14	Y14	Z14	X15	Y15	Z15	X16	Y16	Z16	X17	Y17	Z17	X18	Y18	Z18	X19	Y19	Z19	X20	Y20	Z20	X21	Y21	Z21	X22	Y22	Z22	X23	Y23	Z23	X24	Y24	Z24	X25	Y25	Z25	X26	Y26	Z26	X27	Y27	Z27	X28	Y28	Z28	X29	Y29	Z29	X30	Y30	Z30	X31	Y31	Z31	X32	Y32	Z32	X33	Y33	Z33	X34	Y34	Z34	X35	Y35	Z35	X36	Y36	Z36	X37	Y37	Z37	X38	Y38	Z38	X39	Y39	Z39	X40	Y40	Z40	X41	Y41	Z41	X42	Y42	Z42	X43	Y43	Z43	X44	Y44	Z44	X45	Y45	Z45	X46	Y46	Z46	X47	Y47	Z47	X48	Y48	Z48	X49	Y49	Z49	X50	Y50	Z50	X51	Y51	Z51	

152	1.510	1502.01404	120.25511	1625.92419	1370.00244	135.45227	1632.90247	1510.03357	246.05237	1576.62170	1379.48853	256.12460	1583.51965	1451.26233	278.80493	1421.53796	1450.58887	310.80273	1108.25781	1440.31543	156.26402	1345.75110	1439.75073	112.89631	1180.92249	1354.92896	337.18378	1247.03540	1599.30164	189.66481	1379.84839	1666.15161	192.34123	1180.83667	1675.54382	185.71565	1057.60327	1673.19446	153.68059	931.32092	1640.86609	125.84635	816.11359	1690.08813	152.96101	817.59668	1676.60168	136.40019	734.37323	1284.81873	212.44186	1371.09692	1214.87073	200.98456	1147.89404	1202.18896	177.67775	1037.78442	1202.41443	142.62515	905.52252	1237.35803	94.28540	818.52515	1198.05676	129.57854	805.86609	1206.33728	91.90017	742.26959	1554.71899	137.87947	946.72589	1317.46204	157.69200	939.07715	1519.20166	303.48352	972.28113	1369.57947	313.24756	972.81458	1595.49951	176.55322	645.96167	1548.42261	153.83624	470.34372	1548.78638	182.86354	278.44400	1505.30701	180.00157	69.79826	1469.46680	219.98013	35.18109	1475.75293	26.55783	35.97923	1269.93347	210.01918	641.31268	1290.20105	185.28052	461.92184	1290.36633	328.23068	334.63721	1337.04089	486.38126	189.59636	1394.12280	532.99017	201.93410	1354.31421	434.60992	55.61331																																				 
153	1.520	1502.42322	112.78190	1626.17395	1370.46289	128.10693	1633.09875	1509.91602	238.17929	1576.45117	1379.91541	248.61078	1583.44250	1451.98364	271.02985	1421.76563	1451.39270	303.43185	1108.44910	1440.62012	148.84752	1345.69226	1440.09485	105.51416	1180.89075	1356.63538	330.43262	1246.94006	1599.72070	181.55222	1379.61658	1667.06030	182.07205	1180.73950	1676.80859	174.03342	1057.62073	1674.25024	140.54291	931.72888	1641.59778	112.38136	816.73547	1691.50549	138.31773	818.17572	1678.13892	120.45129	735.32196	1285.08728	205.73158	1370.49792	1215.81396	195.19316	1146.92456	1203.08203	172.14728	1036.74060	1202.88879	138.37070	904.13556	1237.08643	90.34025	816.77209	1198.39929	126.29913	804.43799	1205.72375	88.81682	740.79181	1555.46143	130.23840	947.13263	1317.89404	150.38640	938.79541	1519.66418	296.01120	972.31018	1370.27051	305.99304	972.14246	1595.29602	169.37566	646.32654	1548.72375	149.15179	470.37433	1548.94092	180.25523	278.44174	1505.04321	180.01161	69.84177	1469.40283	219.93866	35.16795	1475.69165	26.49611	35.92963	1270.72473	198.04118	641.74261	1290.48169	168.70543	463.02252	1290.09973	311.69427	336.33551	1336.07959	470.04956	191.71756	1393.34302	517.12146	202.66446	1350.35962	416.66467	58.32264																																				 
154	1.530	1502.80090	105.33244	1626.38513	1370.85046	120.69700	1633.29175	1510.78699	230.90308	1576.47278	1380.33069	241.06187	1583.42761	1452.49219	263.31033	1422.05530	1451.94250	296.25604	1108.72717	1440.73425	142.48763	1345.30432	1440.48523	98.24822	1180.84497	1358.27649	323.77081	1246.85510	1600.12415	173.52448	1379.39844	1667.85168	171.94151	1180.79224	1678.05408	162.20940	1057.93164	1675.26965	127.36163	932.32019	1642.41162	98.50333	817.63690	1692.73560	123.43908	818.89197	1679.73303	104.27032	736.53943	1285.27747	199.14597	1369.88086	1216.74841	189.46843	1146.03296	1203.98450	166.67273	1035.78064	1203.33960	134.07658	902.84454	1236.91211	86.40212	815.12280	1198.68921	122.96536	803.12891	1205.10547	85.68835	739.51343	1556.34375	122.81963	947.49963	1318.50928	143.07954	938.75500	1520.16003	288.75992	972.48914	1370.89404	298.69373	971.74109	1594.83496	162.01872	646.51904	1548.82507	144.58636	470.28925	1548.97998	177.64626	278.46930	1504.99524	179.65504	69.95288	1469.31787	219.93929	35.28312	1475.79980	26.18337	35.89966	1271.28491	185.75986	642.27197	1290.69617	152.34593	464.45398	1290.07043	294.72061	337.71432	1335.02039	453.20355	192.89461	1392.56824	500.69077	202.32590	1347.22168	397.76730	60.23999																																				 
155	1.540	1503.15283	97.91640	1626.54236	1371.17566	113.29926	1633.45435	1511.17017	223.35979	1576.37830	1380.39148	233.55475	1583.20813	1453.05005	255.71849	1422.34973	1452.52844	288.99582	1108.95386	1440.97205	135.13536	1345.33447	1440.83179	90.99982	1180.85571	1359.82080	317.05661	1246.81921	1600.46826	165.62895	1379.40417	1668.63745	161.92113	1181.00854	1679.08936	150.38644	1058.37000	1676.15161	114.19386	933.14697	1643.01758	85.19932	818.59625	1693.94141	108.57909	819.92554	1681.30481	87.97250	738.11133	1285.47656	192.49431	1369.45667	1217.57117	183.93533	1145.30432	1204.73950	161.27922	1035.01184	1203.82654	129.69023	901.77014	1236.80554	82.51511	813.66193	1198.89392	119.42503	801.96240	1204.69592	82.46772	738.39557	1557.23291	115.54572	947.83722	1319.17798	135.70557	939.07605	1520.69043	281.48203	972.59784	1371.46655	291.39456	971.64874	1595.29529	155.96176	646.56476	1548.93140	139.93985	470.12823	1548.93555	174.98920	278.46838	1504.75916	179.41968	70.04937	1469.17786	219.86952	35.28621	1475.70410	26.07120	35.82990	1271.90662	173.43758	642.94226	1291.15540	136.27254	466.03503	1290.09705	277.81439	338.91608	1334.12109	435.50476	192.93010	1391.69531	483.63846	200.97081	1344.13977	377.15359	62.05784																																				 
